<?xml version="1.0" encoding="utf-8"?>
<!-- Generator: Adobe Illustrator 24.0.1, SVG Export Plug-In . SVG Version: 6.00 Build 0)  -->
<svg version="1.1" id="Layer_1" xmlns="http://www.w3.org/2000/svg" xmlns:xlink="http://www.w3.org/1999/xlink" x="0px" y="0px"
	 viewBox="0 0 16 16" style="enable-background:new 0 0 16 16;" xml:space="preserve">
<style type="text/css">
	.st0{fill:#FFFFFF;}
</style>
<path class="st0" d="M8,1.2c1.9,0,3.5,0.6,4.6,1.8c0.9,0.1,1.8,0.5,2.5,1.1C13.9,1.5,11.3,0,8,0C4.8,0,2.1,1.5,0.8,4.1
	c0.7-0.5,1.4-0.9,2.3-1C4.2,1.9,6,1.2,8,1.2z"/>
<path class="st0" d="M12,12c-1,0-2-0.4-2.8-1.1l0,0c-0.1-0.1-0.2-0.1-0.3-0.2c-0.3-0.1-0.6-0.2-0.9-0.2c-0.4,0-0.7,0.1-0.9,0.2
	c-0.1,0-0.2,0.1-0.3,0.2l0,0c-1.6,1.5-4.1,1.5-5.7-0.1s-1.5-4.1,0.1-5.7C2,4.4,3,4,4,4h8c2.2,0,4,1.8,4,4S14.2,12,12,12z"/>
</svg>
